<?xml version="1.0" encoding="utf-8"?>
<!-- Generator: Adobe Illustrator 19.0.0, SVG Export Plug-In . SVG Version: 6.00 Build 0)  -->
<svg version="1.1" id="Layer_1" xmlns="http://www.w3.org/2000/svg" xmlns:xlink="http://www.w3.org/1999/xlink" x="0px" y="0px"
	 viewBox="0 0 960 560" style="enable-background:new 0 0 960 560;" xml:space="preserve">
<style type="text/css">
	.st0{fill:#FFFFFF;}
</style>
<g>
	<g>
		<path class="st0" d="M984.1,796.9c-335.7,0-671.5,0-1007.2,0c0-335.7,0-671.5,0-1007.2c335.7,0,671.5,0,1007.2,0
			C984.1,125.4,984.1,461.2,984.1,796.9z M304.3,466.9c99.4,93.9,263,97.5,366.7-8.3C775.7,351.9,770.7,178.7,657,78.3
			C546.8-19.1,376.2-7.8,280.7,108.6c-92.7,112.9-70.6,267,17.3,352c59.4-59.4,118.7-118.8,178-178.1c2.3,2.2,4.3,4.1,6.5,6.2
			C423.1,348.1,363.8,407.4,304.3,466.9z"/>
		<path d="M304.3,466.9c59.5-59.5,118.8-118.8,178.2-178.2c-2.1-2-4.2-4-6.5-6.2c-59.3,59.3-118.6,118.7-178,178.1
			c-88-85-110-239.1-17.3-352C376.2-7.8,546.8-19.1,657,78.3c113.7,100.5,118.7,273.6,14.1,380.3
			C567.3,564.4,403.7,560.8,304.3,466.9z M484.8,266.3c54.3-54.3,108.2-108.2,162.1-162.1c-90.4-90.2-240.6-86.5-326.2-2.4
			C375.5,156.7,430.3,211.7,484.8,266.3z M325.2,452.2c54.7,46.4,117.4,66.1,188.5,57.3c49.4-6.1,92.4-26.9,128.9-60
			c-52.7-52.7-105.1-105.1-157.3-157.3C432.2,345.3,378.9,398.6,325.2,452.2z M472,279.4c-53.3-53.3-106.6-106.6-159.6-159.6
			c0,105.9,0,212.6,0,319.3C365.8,385.7,419.1,332.3,472,279.4z M657.4,120.5c-52.9,52.9-106,106-158.6,158.6
			c52.8,52.8,105.8,105.8,158.6,158.6C657.4,332.1,657.4,226,657.4,120.5z M675.4,443.4c29.5-34.1,49.2-72.6,57.9-116.3
			c9.8-49.7,6.2-98.5-12.5-146c-10.8-27.3-26-51.7-45.3-74.3C675.4,219.2,675.4,331,675.4,443.4z M294.5,130.7
			c-66.5,83.6-64,208.1,0,287.8C294.5,322.6,294.5,226.8,294.5,130.7z M660.3,91.2c-30.4-29.3-66-50-106.8-61.4
			c-48.1-13.5-96.3-13.2-144.2,1.1c-38.2,11.4-71.8,31-100.6,58.2c3.7,3.7,7.3,7.3,10.9,10.9c46.6-42.5,101.7-64.6,165-64.1
			c63.3,0.5,118.1,23.6,164.1,66.9C652.6,98.9,656.3,95.2,660.3,91.2z M644.6,450.9c-45.4,40.9-98.8,62.5-159.8,63
			c-61.1,0.5-114.9-20.2-160.7-60.1c-3.8,3.8-7.5,7.5-11.3,11.3c49.3,42.8,106.4,65.2,172.3,64.8c65.9-0.4,122.5-23.6,171.5-67
			C652.4,458.7,648.6,455,644.6,450.9z M294,446.4c0.2-0.1,0.4-0.1,0.7-0.2c0-7.1,0.1-14.2-0.1-21.4c0-1.5-0.6-3.2-1.5-4.4
			c-17-22.3-29.9-46.8-38.3-73.5c-7.6-24.2-11.4-49.1-11.1-74.5c0.1-9.3,0.8-18.6,1.9-27.8c1.8-14.8,5.2-29.4,9.8-43.6
			c8.5-26.1,21.2-50,37.9-71.8c0.8-1.1,1.3-2.6,1.3-4c0.1-6.4,0.1-12.8,0.1-19.2c0-0.7-0.1-1.4-0.2-2.6
			c-43.2,49.6-65.8,106.3-65.8,171.8C228.6,340.6,251.2,397.3,294,446.4z"/>
		<path class="st0" d="M484.8,266.3c-54.5-54.6-109.3-109.6-164.1-164.5c85.5-84.1,235.8-87.8,326.2,2.4
			C593,158.2,539.1,212.1,484.8,266.3z"/>
		<path class="st0" d="M325.2,452.2c53.7-53.7,107-107,160-160c52.2,52.2,104.6,104.6,157.3,157.3c-36.5,33.1-79.4,53.8-128.9,60
			C442.6,518.4,379.9,498.6,325.2,452.2z"/>
		<path class="st0" d="M472,279.4c-52.9,52.9-106.2,106.3-159.6,159.8c0-106.7,0-213.4,0-319.3C365.4,172.8,418.7,226.2,472,279.4z"
			/>
		<path class="st0" d="M657.4,120.5c0,105.5,0,211.6,0,317.1C604.6,384.8,551.6,331.8,498.9,279
			C551.5,226.4,604.6,173.3,657.4,120.5z"/>
		<path class="st0" d="M675.4,443.4c0-112.4,0-224.2,0-336.6c19.3,22.7,34.6,47.1,45.3,74.3c18.7,47.4,22.4,96.2,12.5,146
			C724.6,370.8,704.9,409.3,675.4,443.4z"/>
		<path class="st0" d="M294.5,130.7c0,96.1,0,191.8,0,287.8C230.5,338.9,228,214.4,294.5,130.7z"/>
		<path class="st0" d="M660.3,91.2c-4,4-7.7,7.7-11.6,11.5C602.8,59.5,548,36.4,484.7,35.9c-63.3-0.5-118.4,21.6-165,64.1
			c-3.6-3.6-7.2-7.2-10.9-10.9c28.8-27.2,62.4-46.8,100.6-58.2c47.9-14.3,96.1-14.7,144.2-1.1C594.3,41.2,629.9,61.9,660.3,91.2z"/>
		<path class="st0" d="M644.6,450.9c4,4.1,7.8,7.8,12,12c-48.9,43.4-105.6,66.7-171.5,67c-65.9,0.4-123-22.1-172.3-64.8
			c3.8-3.8,7.5-7.5,11.3-11.3c45.8,39.9,99.6,60.6,160.7,60.1C545.8,513.4,599.1,491.8,644.6,450.9z"/>
		<path class="st0" d="M294,446.4c-42.8-49-65.4-105.7-65.4-171.2c0-65.5,22.6-122.2,65.8-171.8c0.1,1.3,0.2,2,0.2,2.6
			c0,6.4,0.1,12.8-0.1,19.2c0,1.3-0.5,2.9-1.3,4c-16.7,21.8-29.4,45.7-37.9,71.8c-4.6,14.2-8,28.8-9.8,43.6
			c-1.1,9.2-1.9,18.6-1.9,27.8c-0.3,25.4,3.5,50.2,11.1,74.5c8.4,26.8,21.3,51.2,38.3,73.5c0.9,1.2,1.5,2.9,1.5,4.4
			c0.2,7.1,0.1,14.2,0.1,21.4C294.4,446.2,294.2,446.3,294,446.4z"/>
	</g>
</g>
</svg>
