<?xml version="1.0" encoding="utf-8"?>
<!-- Generator: Adobe Illustrator 19.0.0, SVG Export Plug-In . SVG Version: 6.00 Build 0)  -->
<svg version="1.1" id="Layer_1" xmlns="http://www.w3.org/2000/svg" xmlns:xlink="http://www.w3.org/1999/xlink" x="0px" y="0px"
	 viewBox="0 0 1280 1280" style="enable-background:new 0 0 1280 1280;" xml:space="preserve">
<g id="InnerC">
	<path id="XMLID_158_" fill="#3A3A3A" d="M978.4,1000.9c-87,80.2-202.2,129.9-326.6,129.9c-128,0-244.6-49.8-331.4-131.1l-3.7,3.7
		c42.3,39.7,90.8,71.2,144.2,93.8c60.5,25.6,124.7,38.5,190.9,38.5c66,0,130.2-13.3,190.9-39.4c51.6-22.2,98.6-52.9,140-91.3
		L978.4,1000.9z"/>
	<path id="XMLID_159_" fill="#3A3A3A" d="M651.8,160.2c128.3,0,245.2,50.1,332.1,131.7l3.7-3.7c-42.5-40-91.2-71.7-144.9-94.5
		c-60.5-25.6-124.7-38.5-190.9-38.5c-66.2,0-130.4,13-190.9,38.5c-58.4,24.7-110.8,60-155.9,105.1c-45,45-80.4,97.5-105.1,155.9
		c-25.6,60.5-38.5,124.7-38.5,190.9c0,66.2,13,130.4,38.5,190.9c23.8,56.2,57.4,106.8,100,150.7l3.7-3.7
		C218.8,896,166.4,776.7,166.4,645.5C166.4,377.9,384.1,160.2,651.8,160.2z"/>
</g>
<rect id="BotRight" fill="#3A3A3A" x="821.4" y="588" transform="matrix(0.7079 -0.7063 0.7063 0.7079 -346.8191 838.5508)" width="38" height="501.2"/>
<path id="BotLeft" fill="#3A3A3A" d="M624.7,648.4c-0.2,0.2-0.4,0.3-0.6,0.5l0.1,0.1l-351,351.3l7.4,7.8c117-117.1,234.6-234.6,351.3-351.3
	l12.5,12.4c-60.2,60.2-120.3,120.3-180.3,180.3c-56.8,56.8-115.7,115.8-172.7,172.8c2.1,2,4.3,4,6.5,5.9c0,0,0.3,0.2,0.3,0.2
	c0.1,0.1,1.5-1.5,2.1-2.1l351.5-349.9l0,0l0.4-0.4L624.7,648.4z"/>
<polygon id="TopLeft" fill="#3A3A3A" points="651.6,622.4 299,270.1 299,324.4 299.3,324.4 299.3,324.4 299.3,324.4 299.3,324.4 589.9,615.1 
	651.7,676.5 651.7,622.3 "/>
<polygon id="TopRight" fill="#3A3A3A" points="1000.6,274.2 651.7,622.3 651.7,676.5 651.8,676.6 1000.6,326.6 "/>
<g id="M_sides">
	<path id="XMLID_164_" fill="#3A3A3A" d="M299.3,324.4v-54l-7.3-7.3c-10.1,9.4-19.7,19.3-29,29.5v29.3h0c0,2.4,0,4.7,0,7.1v632c0,5,0,10.1,0,15.3
		v0.1h0c0,4.5,0,9,0,13.5l17.7,18.6c6.2-6.2,12.4-12.7,18.7-18.9v-15.3V695v-6.8V324.4z"/>
	<path id="XMLID_165_" fill="#3A3A3A" d="M1037.2,299.6c-9.7-11-19.8-21.7-30.3-31.8c-1.8,1.9-2.9,3.1-4,4.2l-2.4,2.4v52.5l0.1-0.1v415.6v229.6
		l0.2,57.9l36.3-35.2l0-694c0,0,0,0,0,0V299.6z"/>
</g>
<path id="CircleExtra" fill="#3A3A3A" d="M1141.1,438.8c-26.8-63.2-65-120-113.8-168.8c-3.9-3.9-7.8-7.6-11.7-11.4l-11.3,11.7
	c100,94,162.5,227.5,162.5,375.2c0,147.5-65.8,282.9-169,377.8l12,12.1c5.9-5.5,11.7-11.1,17.5-16.9c48.7-49.1,87-106,113.8-169.1
	c27.7-65.2,41.7-133.8,41.7-203.9C1182.9,573.8,1168.8,504.2,1141.1,438.8z"/>
<g id="OutterC">
	<path id="XMLID_160_" fill="#3A3A3A" d="M651.8,1160.6c-137.8,0-263.2-54.4-355.7-142.9l-11.5,11.5c46.9,44.9,100.8,80.4,160.5,105.7
		c65.5,27.7,135,41.7,206.7,41.7c71.5,0,141.1-14.4,206.8-42.7c55.7-24,106.5-57.1,151.3-98.5l-12-12.1
		C905.6,1108.1,783.5,1160.6,651.8,1160.6z"/>
	<path id="XMLID_161_" fill="#3A3A3A" d="M283.5,1005.4c-90.8-92.9-146.9-220-146.9-359.9c0-284,231.1-515.1,515.1-515.1
		c136.3,0,260.4,53.2,352.6,139.9l11.3-11.7c-46.1-43.4-98.9-77.8-157.1-102.5c-65.5-27.7-135-41.7-206.7-41.7s-141.3,14-206.7,41.7
		c-63.2,26.8-120,65-168.8,113.8s-87.1,105.6-113.8,168.8c-27.7,65.5-41.7,135-41.7,206.7s14,141.3,41.7,206.7
		c26,61.4,62.9,116.8,109.7,164.6L283.5,1005.4z"/>
</g>
</svg>
