<?xml version="1.0" encoding="utf-8"?>
<!-- Generator: Adobe Illustrator 21.1.0, SVG Export Plug-In . SVG Version: 6.00 Build 0)  -->
<svg version="1.1" baseProfile="tiny" id="Layer_1" xmlns="http://www.w3.org/2000/svg" xmlns:xlink="http://www.w3.org/1999/xlink"
	 x="0px" y="0px" viewBox="0 0 50 54.9" xml:space="preserve">
<g>
	<path fill="#F7B080" d="M41.8,9.2c-0.2,1-0.9,1.7-1.4,2.5c-0.7,1.2-1.6,2.3-2.4,3.4c-0.3,0.5-0.6,0.8-1.2,0.4
		c-0.5-0.3-0.4-0.7-0.1-1.2c1.1-1.8,2.2-3.5,3.4-5.3c0.3-0.4,0.7-0.7,1.3-0.6C41.7,8.6,41.8,8.9,41.8,9.2z"/>
	<path fill="#F7B080" d="M39.5,20.4c1.6,0.4,3.3,0.6,4.9,1.2c0.5,0.2,0.9,0.4,0.8,1.1c-0.2,0.7-0.9,0.7-1.3,0.6
		c-1.6-0.4-3.3-0.7-4.8-1.3c-0.5-0.2-0.9-0.4-0.7-1C38.5,20.4,39,20.3,39.5,20.4z"/>
	<path fill="#F7B080" d="M38.9,18.3c-0.5,0-0.8,0-0.9-0.4c-0.1-0.3,0.1-0.5,0.3-0.7c1.7-1.1,3.5-2,5.3-2.8c0.3-0.1,0.8-0.2,1.1,0.2
		c0.2,0.3,0.1,0.7-0.2,0.9C42.7,16.8,40.7,17.5,38.9,18.3z"/>
	<path id="Ear_1_" fill="#EFE8D8" d="M36.2,3.6c0.2,2.4-0.5,4.7-1,7c-0.3,1.2-0.4,2.5-1,3.7c0-0.3-0.1-0.4-0.3-0.6
		c-1-0.8-1.9-1.6-2.3-2.9c0.3-0.4,0.4-0.8,0.5-1.3c0.4-1.3,0.4-1.3-1-1.5c1.3-1.3,2.5-2.6,3.7-4c0.2-0.2,0.7-0.4,0.3-0.8
		C35.5,3,35.8,3.5,36.2,3.6z"/>
	<path id="Ear" fill="#EFE8D8" d="M2.5,12.2c-0.7-3.1-1-6.2-0.7-9.4c0-0.2,0.1-0.5,0.2-0.7c0.3,0,0.5,0.1,0.7,0.3
		c-0.3,0.5,0.2,0.7,0.4,1C4.4,5.1,5.6,7,6.5,9.1C6.1,9,5.8,8.9,5.5,8.8C5.1,8.7,4.9,8.9,4.9,9.3C5,9.9,5,10.5,5.4,11
		c-0.3,0-0.4,0.2-0.6,0.4C4.1,11.9,3.4,12.3,2.5,12.2z"/>
	<path id="eyebrow" fill="#EFE8D8" d="M13.8,14.4c0,0.9-0.4,1.3-1.2,1.3c-0.9,0-1.5-0.5-1.4-1.3c0.1-0.7,0.3-1.3,1.2-1.3
		C13.2,13.1,13.7,13.6,13.8,14.4z"/>
	<path id="eyebrow_1_" fill="#EFE8D8" d="M24.3,13.7c0.7-0.1,1.3,0,1.2,0.9c0,0.6-0.6,1.2-1.3,1.2c-0.7,0-1.1-0.3-1.1-1.1
		C23.1,13.7,23.6,13.6,24.3,13.7z"/>
	<path id="fur" fill="#EFDCC5" d="M48.2,39.8c0.2-0.2-0.4-0.5,0.1-0.6c0.1-0.2,0.1-0.3-0.1-0.4c-0.1-0.2-0.2-0.1-0.4-0.2
		c-0.3-0.1-0.6,0.5-0.9,0.1c-0.2-0.3,0.3-0.5,0.4-0.8c0-0.1-0.1-0.1-0.1-0.2c-0.4-0.7-0.7,0.5-1,0.2c-0.3-0.4,0.5-0.7-0.1-0.9
		c-1.5-0.7-3-1.2-4.7-1c-3,0.4-4.8,2.3-6,4.8c-0.8,1.7-0.4,3.4,1.2,4.6c1.4,1.1,2.9,1.5,4.6,1.4c0.3,0,0.7-0.1,1,0.2
		c-1.6,0.6-3.2,0.6-4.7-0.1c0,0.3-0.3,0.6-0.7,0.8c0.2-0.7,0.1-1.3-0.6-1.6c-0.5-0.3-0.9-0.7-1.2-1.2c-1.1-1.8-0.7-3.6,0.3-5.3
		c0.2-0.3,0.5-0.4,0.2-0.9c-1.1-1.9-2.1-3.9-3.5-5.6c-0.2-0.2-0.4-0.6-0.6-0.7c-1-0.2-0.5-0.7-0.2-1.1c0.1-0.2,0.3-0.4,0.4-0.5
		c-0.9-0.8-1.8-0.1-2.7-0.2c0.6-0.6,1.4-0.8,2.1-1.2c0.7-0.2,1.3-0.4,2-0.7l0,0c0.1-0.1,0.1-0.1,0.2-0.1c0.3-0.2,0.6-0.4,1-0.6
		c0.6-0.3,1.2-0.6,0.6-1.4c-0.1-0.2,0-0.4,0.1-0.6c0.1-0.1,0.2-0.4,0.2-0.4c-0.9-1.2-0.3-2.6-0.6-3.9c-0.2-1.4-0.4-2.8-0.5-4.3
		c-0.1-0.9-0.5-1.9,0-2.8c0-0.3-0.1-0.4-0.3-0.6c-1-0.8-1.9-1.6-2.3-2.9c-0.5,0-0.8-0.1-0.5-0.7c0.3-0.5,0.2-1-0.4-1.3
		c-0.5-0.2-0.4-0.6-0.2-0.9c1.3-1.8,2.7-3.4,4.6-4.6c0.5-0.2,0.8,0.3,1.2,0.3c0.2-2.1,0.2-2.1-1.7-1.7c-3.1,0.6-6.2,1.4-9,2.9
		c-0.4,0.2-0.7-0.1-1-0.1c-3.1-1-6.1-1.5-9.3-0.7c-0.2,0.1-0.5,0-0.6,0.4c0.1,0.2,0.1,0.4,0,0.5c-0.2,0.1-0.3,0-0.4-0.2
		c0,0,0-0.1-0.1-0.1c-0.3-0.3-0.3-1.1-0.8-1c-0.6,0.1-0.1,0.7-0.2,1.1c0,0.1,0,0.3-0.2,0.3c-0.2,0.1-0.3-0.1-0.4-0.2
		c-0.1-0.3-0.3-0.7-0.4-1c-0.2-0.1-0.4-0.1-0.7,0C11.3,4,11.1,4.2,10.8,4c-1.1-0.1-2-0.7-2.9-1.1C6.5,2.1,5.1,1.5,3.5,1
		C2.3,0.7,2.1,0.7,2,2.1c0.3,0,0.5,0.1,0.7,0.3c0.1,0,0.1,0,0.2,0c0,0,0-0.1,0-0.1c0,0,0,0.1,0,0.1c0.2,0.1,0.4,0.3,0.5,0.4
		c1.2,1.5,2.3,3,3.1,4.7C7,8.3,7.3,9.1,7.3,10C6.4,9.8,5.4,9.5,5.7,11c0,0.2-0.2,0.1-0.3,0c-0.3,0-0.4,0.2-0.6,0.4
		c-0.7,0.6-1.4,0.9-2.3,0.8c0.7,1.2,0.1,2.4,0,3.5c0,0,0,0,0,0c0,0,0,0,0,0c-0.4,1.7-0.6,3.5-0.7,5.2c0,0.1,0,0.1,0,0.2
		c-0.1,0.5-0.2,1-0.4,1.5c0.1,1-0.9,2.2,0.2,3.2c0.1,0.1-0.2,0.4-0.2,0.5C1,26.9,1.6,27,1.8,27.2c0.2,0.4,0.6,0.5,1,0.7
		C4,28.5,5.3,29,6.5,29.6c0.2,0.1,0.7,0.1,0.6,0.5C7.1,30.5,7,30.9,6.5,31c-0.3,0.2-0.7,0.2-0.9,0.5c0.3,0.2,0.6,0.5,0.8,0.7
		c0.2,0.2,0.3,0.6-0.2,0.5c-0.7-0.2-0.7,0.3-0.9,0.7c-0.3,0.8-0.6,1.6-0.9,2.5c-1.2,3.2-1.6,6.5-1.7,9.9c-0.1,2.5,1,4.6,3.3,5.9
		c1.7,1,3.5,1.5,5.5,1.9c0.2,0,0.6,0.3,0.7-0.2c-1.1-0.9-2.2-1.9-3.1-3.1c1.6,0.7,2.8,1.9,4,3.1c0.3,0.2,0.7,0.4,1,0.6
		c0.5,0,1.1,0,1.6,0.1c0-0.1,0.1-0.2,0.1-0.3c0-0.2-0.2-0.7,0.2-0.7c0.3,0,0.3,0.4,0.3,0.7c0,0.1,0,0.3,0,0.4c0.2,0,0.5,0,0.7,0
		c0.1,0,0.2,0,0.3-0.1c0.3-0.5-0.1-1,0-1.6c0.5,0.1,0.4,0.8,0.9,0.9c-0.1-1.3-0.3-2.6-0.6-3.9c0.1-0.4-0.2-0.8,0.3-1.2
		c0.4,1.1,0.4,2.2,0.7,3.2c0.5-0.7,0.2-1.7,1-2.2c0.2,0.9-0.3,1.6-0.5,2.4c-0.1,0.5-0.4,1.1-0.2,1.7c0.4-0.1,0.3-0.6,0.7-0.6
		c0.3,0.3-0.4,0.8,0.3,1.1c1,0.5,0.9-0.6,1.5-0.9c-0.3,1.2,0.3,1.2,1.1,1.2c0.7,0,1.2-0.3,1.7-0.7c1.1-0.9,2.3-1.8,3.4-2.7
		c0.2-0.1,0.3-0.4,0.7-0.2c-0.5,0.8-1.2,1.4-1.9,2.1c1.7,0.3,5.1-0.3,7.3-1.2c0.1-0.1,0.1-0.1,0.2-0.2c0.1-0.1,0.2-0.1,0.3-0.2h0.1
		h0.1c0-0.1,0-0.1,0.1-0.2c0.1-0.1,0.2-0.1,0.4-0.2l0,0c0.2-0.2,0.4-0.4,0.6-0.6c0.2,0.3,0.3,0.6,0.1,0.8c2.1,0.7,4.2,1.2,6.5,0.8
		C48.1,50.7,50.8,44.6,48.2,39.8z M3.1,26.1L3.1,26.1c0.1,0,0.2,0.1,0.2,0.2C3.2,26.3,3.2,26.2,3.1,26.1z M5.7,26.6
		c0-0.3,0-0.6,0-0.9C5.7,26,5.7,26.3,5.7,26.6c0.1,0.1,0.1,0.2,0.2,0.3C5.9,26.8,5.8,26.7,5.7,26.6z M9.8,19.7
		C9.2,20,8.6,19.9,8,19.5c-0.7-0.5-0.8-1.3-0.4-2.2c0.5-1,1.5-1.6,2.2-1.4c0.8,0.3,1,1,1,1.8C10.8,18.5,10.7,19.3,9.8,19.7z
		 M15.1,19.7c1.1-0.9,2.4-1.1,3.8-0.8c0.8,0.1,1.4,0.5,1.8,1.2c0.1,1.1-0.7,1.5-1.6,1.6c-0.7,0.1-1,0.4-0.9,1.1
		c0.1,0.6-0.3,1.1-0.2,1.7c-0.3-0.5-0.4-1.1-0.3-1.7c0.1-0.7-0.1-1-0.9-1.1c-0.3,0-0.7-0.1-1-0.3C15,21.1,14.8,20.6,15.1,19.7z
		 M11.1,14.4c0.1-0.7,0.3-1.3,1.2-1.3c0.9,0,1.4,0.5,1.4,1.3c0,0.9-0.4,1.3-1.2,1.3C11.7,15.7,11.1,15.2,11.1,14.4z M13.7,38.2
		c-0.2,0.4,0,1.1-0.6,1.2c-0.3,0.1-0.3-0.3-0.2-0.6c0.2-0.3,0.1-0.8,0.7-1C13.8,37.7,13.8,38,13.7,38.2z M13.8,36.1
		c-0.2,0.4-0.5,0.9-1,1c-0.2,0.1-0.3-0.1-0.2-0.3c0.1-0.5,0.5-0.8,1-1C13.8,35.8,13.9,35.9,13.8,36.1z M21,25.1
		c-0.6,0.2-0.7,0.4-0.5,0.9c0.4,1.5,0,2.3-1.2,2.8c-1.2,0.5-3.1-0.1-3.7-1.1c-0.4-0.9,0-1.7,0.2-2.5c-0.8-0.4-1.8-0.6-2.4-1.3
		c-0.5-0.5-0.7-1-0.5-1.7c0-0.1,0.1-0.2,0.2-0.2c0.1,0,0.2,0.1,0.2,0.2c-0.1,1.9,1.4,2,2.6,2.4c0.3,0.1,0.6,0.1,0.9,0.2
		c0.5,0,0.9,0,1.4,0c0.9-0.1,1.9,0.1,2.7-0.3c0.7-0.3,1.5-0.7,1.6-1.6c0-0.3,0.2-0.4,0.4-0.5C23.2,23.5,22.6,24.5,21,25.1z
		 M24.3,15.7c-0.7,0-1.1-0.3-1.1-1.1c0-0.9,0.5-1,1.2-0.9c0.7-0.1,1.3,0,1.2,0.9C25.5,15.2,25,15.7,24.3,15.7z M28.1,19.9
		c-0.8,0.2-1.5,0-1.9-0.7c-0.3-0.5-0.5-1.1-0.4-1.7c0-0.7,0-1.3,0.6-1.5c0.6-0.3,1.3-0.2,1.8,0.2c0.7,0.5,1,1.3,1.1,2.1
		C29.4,19.2,28.8,19.7,28.1,19.9z"/>
	<g id="outline">
		<path fill="#8D150C" d="M9.1,50.3c0.9,1.2,2,2.1,3.1,3.1c0.3,0,0.6,0,0.9,0C11.9,52.2,10.7,51,9.1,50.3z"/>
		<path fill="#8D150C" d="M47.3,37.6C47.3,37.7,47.3,37.7,47.3,37.6C47.3,37.7,47.3,37.7,47.3,37.6L47.3,37.6
			c-0.1-0.1-0.1-0.2-0.2-0.2c0,0,0,0.1,0,0.1C47.1,37.6,47.2,37.6,47.3,37.6z"/>
		<path fill="#8D150C" d="M48.3,39.1L48.3,39.1L48.3,39.1c-0.5,0.1,0.1,0.4-0.1,0.6c2.5,4.8-0.1,10.9-5.9,11.9
			c-2.3,0.4-4.4-0.1-6.5-0.8c-0.2,0-0.3-0.1-0.5-0.1c0.2,0,0.3,0.1,0.5,0.1c0.4-0.6,0.8-1.1,1.2-1.7c0.3-0.8,0.5-1.6,0.6-2.5
			c1.6,0.8,3.1,0.7,4.7,0.1c-0.3-0.4-0.7-0.3-1-0.2c-1.7,0.2-3.3-0.3-4.6-1.4c-1.5-1.2-2-2.8-1.2-4.6c1.2-2.6,3-4.4,6-4.8
			c1.7-0.2,3.2,0.4,4.7,1c0.6,0.2-0.2,0.6,0.1,0.9c0.3,0.3,0.5-0.5,0.8-0.4c0.3-0.8-0.5-1-1-1.2c-3.5-1.7-7.1-1.3-9.6,1.7
			c-0.1,0.1-0.1,0.1-0.3,0.2c-0.9-2.3-2.2-4.3-3.7-6.1c-0.4-0.4-0.4-0.7,0-1.1c0.5-0.5,0.7-1-0.4-1.2c0.7-0.3,1.2-0.6,1.8-0.9
			c0.6-0.2,1.2-0.6,1.7-1c0.4-0.3,0.7-0.6,0.4-1.1c-0.3-0.5-0.1-0.8,0.2-1.2c0.4-0.5,0.5-1-0.4-1.1c-0.4-0.1-0.4-0.3-0.4-0.6
			c0.3-2.7-0.2-5.4-0.7-8.1c-0.1-0.4-0.1-0.7,0.1-1.1c0.5-1,0.7-2.2,1-3.3c0.7-3,1.6-6,1.2-9.1C36.8,1,36.7,0.9,35.3,1
			c-0.1,0-0.2,0-0.3,0c-3.3,0.5-6.6,1.4-9.6,2.9c-0.4,0.2-0.7,0.2-1,0c-2.9-1.1-5.8-1.5-8.9-0.9C15,3.2,14.5,3.5,14,3.1
			c-0.3-0.2-0.3,0.2-0.3,0.4c-0.1,0.1-0.1,0.1-0.2,0.1c0.2,0.2,0.2,0.6,0.4,0.8c0,0,0,0.1,0.1,0.1c0.1,0.2,0.2,0.3,0.4,0.2
			c0.2-0.1,0.1-0.3,0-0.5C14.5,4,14.8,4,15.1,3.9c3.2-0.8,6.3-0.2,9.3,0.7c0.4,0,0.6,0.3,1,0.1c2.8-1.5,5.9-2.3,9-2.9
			c1.9-0.4,1.9-0.4,1.7,1.7c0.2,2.4-0.5,4.7-1,7c-0.3,1.2-0.4,2.5-1,3.7c-0.5,0.9-0.1,1.9,0,2.8c0.2,1.4,0.3,2.8,0.5,4.3
			c0.2,1.3-0.4,2.7,0.6,3.9c0,0.1-0.1,0.3-0.2,0.4C35,25.8,34.8,26,35,26.3c0.6,0.8,0,1.1-0.6,1.4c-0.3,0.2-0.7,0.4-1,0.6
			c-0.1,0.1-0.1,0.1-0.2,0.1c0,0,0,0,0,0c-0.7,0.2-1.3,0.4-2,0.7c-0.7,0.4-1.5,0.6-2.1,1.2c0.9,0.1,1.8-0.6,2.7,0.2
			c-0.1,0.2-0.3,0.4-0.4,0.5c-0.3,0.4-0.8,0.8,0.2,1.1c0.2,0.1,0.4,0.4,0.6,0.7c1.3,1.8,2.4,3.7,3.5,5.6c0.2,0.4-0.1,0.6-0.2,0.9
			c-1,1.7-1.4,3.4-0.3,5.3c0.3,0.5,0.7,0.9,1.2,1.2c0.7,0.4,0.9,1,0.6,1.7c-0.2,0.5-0.3,1.1-0.6,1.6c-0.2,0.7-0.7,1.1-1.2,1.6l0,0
			c-0.1,0.1-0.2,0.1-0.4,0.2c0,0.1,0,0.1-0.1,0.2h-0.1h-0.1c-0.1,0.1-0.2,0.1-0.3,0.2c-0.1,0.1-0.1,0.1-0.2,0.2l0,0
			c-2.2,0.9-5.6,1.5-7.3,1.2c0.7-0.7,1.3-1.3,1.9-2.1c-0.4-0.2-0.5,0.1-0.7,0.2c-1.2,0.9-2.3,1.8-3.4,2.7c-0.5,0.4-1,0.7-1.7,0.7
			c-0.8,0-1.4,0-1.1-1.2C21,53.4,21,54.4,20,54c-0.6-0.3,0-0.8-0.3-1.1c-0.4,0-0.4,0.5-0.7,0.6c-0.2-0.6,0.1-1.1,0.2-1.7
			c0.2-0.8,0.7-1.6,0.5-2.4c-0.8,0.5-0.6,1.5-1,2.2c-0.3-1-0.3-2.1-0.7-3.2c-0.4,0.4-0.2,0.8-0.3,1.2c0.4,1.2,0.5,2.5,0.6,3.9
			c-0.5-0.2-0.4-0.8-0.9-0.9c0,0.6,0.3,1,0,1.6l0,0c-0.1,0-0.2,0-0.3,0.1c-0.2,0-0.5,0-0.7,0c0-0.1,0-0.3,0-0.4l0,0
			c0-0.3,0-0.7-0.3-0.7c-0.4,0-0.2,0.4-0.2,0.7c0.1,0,0.2,0,0.2,0c-0.1,0-0.2,0-0.2,0c0,0.1-0.1,0.2-0.1,0.3c-0.5,0-1.1,0-1.6-0.1
			c-0.3-0.2-0.7-0.4-1-0.6c-0.3,0-0.6,0-0.9,0c-0.1,0.4-0.5,0.2-0.7,0.2c-1.9-0.4-3.7-0.9-5.5-1.9c-2.3-1.3-3.4-3.3-3.3-5.9
			c0.1-3.4,0.5-6.7,1.7-9.9c0.3-0.8,0.6-1.6,0.9-2.5c0.1-0.4,0.2-0.9,0.9-0.7c0.4,0.1,0.4-0.3,0.2-0.5c-0.2-0.3-0.5-0.5-0.8-0.7
			c0.2-0.3,0.6-0.3,0.9-0.5c-0.1-0.2-0.3-0.3-0.4-0.5c-0.4,0.1-0.8,0.2-1.1,0.4c-0.4,0.2-0.5,0.6-0.2,0.9c0.5,0.4,0.3,0.8,0.1,1.2
			C3.1,36.6,2.2,40.4,2,44.4c-0.2,3.1,0.4,5.9,3.2,7.6c2.2,1.3,4.5,2.1,7.1,1.8c0.3,0,0.5,0.1,0.7,0.2c1.6,0.9,3.2,0.8,4.9,0.4
			c0.4,0.3,0.7-0.4,1.2-0.2c1.1,0.5,2.3,0.6,3.5,0.7c0.6,0,1.2,0,1.7-0.4c0.9-0.9,2.1-0.8,3.2-0.9c2.1-0.2,4.2-0.3,6.1-1.1
			c1.2-1,2.4-0.8,3.8-0.3c6.2,2,11.9-1.7,12.5-8C50.2,42.2,49.5,40.6,48.3,39.1z M15.3,54.5c0.1,0,0.2-0.1,0.3-0.2
			C15.5,54.4,15.4,54.5,15.3,54.5z"/>
		<path fill="#8D150C" d="M7.1,30.1c0.1-0.4-0.4-0.4-0.6-0.5c-1.3-0.6-2.5-1.1-3.8-1.7c-0.4-0.2-0.7-0.4-1-0.7
			c-0.2-0.2-0.8-0.3-0.4-0.8c0.1-0.2,0.4-0.4,0.2-0.5c-1.1-1,0-2.1-0.2-3.2c0.1-0.5,0.2-1,0.4-1.5c0-0.1,0-0.1,0-0.2
			c0.1-1.8,0.4-3.5,0.7-5.2c0.1-1.2,0.7-2.4,0-3.5c-0.7-3.1-1-6.3-0.7-9.4c0-0.2,0.1-0.5,0.2-0.7C2.1,0.7,2.2,0.6,3.5,1
			c1.5,0.4,3,1,4.4,1.8c0.9,0.5,1.8,1,2.9,1.1C11,4.1,11.2,4,11.4,3.7c-0.1-0.2-0.2-0.4-0.4-0.4C9.7,2.7,8.4,2.1,7.1,1.5
			c-1.2-0.6-2.4-1-3.7-1.3C1.9-0.2,1.5,0,1.2,1.6C0.5,5.2,0.9,8.7,1.7,12.2c0.3,1.2,0.3,2.3,0,3.5c-0.4,1.5-0.6,3-0.7,4.5
			c-0.3,0.9-0.2,1.9-0.2,2.9c0,0.2,0.1,0.5-0.1,0.7c-0.6,0.4-1,0.9-0.4,1.6c0.7,0.6-0.6,1.2,0,1.7c0.2,0.1,0.3,0.3,0.4,0.5
			c0.5,0.5,1.1,1,1.8,1.3c1,0.5,2,0.9,3.1,1.2c0.2,0,0.7,0,0.3,0.4c0.1,0.2,0.3,0.3,0.4,0.5C7,30.9,7.1,30.5,7.1,30.1z"/>
		<path fill="#8D150C" d="M13.2,3.5c-0.1,0-0.2,0.1-0.3,0.2c0.2,0.2,0.4,0.1,0.6,0C13.5,3.6,13.4,3.5,13.2,3.5z"/>
		<path fill="#8D150C" d="M12.8,3.5c-0.1-0.2-0.2-0.4-0.4-0.4C12,3.1,12.1,3.5,12,3.7c0.1,0.3,0.3,0.7,0.4,1
			c0.1,0.1,0.2,0.3,0.4,0.2C13,4.9,13,4.7,13,4.6c0.1-0.3-0.2-0.7-0.1-0.9C12.9,3.7,12.8,3.6,12.8,3.5z"/>
		<path fill="#8D150C" d="M47.4,37.9c-0.1,0.3-0.6,0.5-0.4,0.8c0.2,0.4,0.5-0.2,0.9-0.1c-0.1-0.4,0.5-0.7,0.4-1.1
			c-0.4-0.2-0.5,0.5-0.9,0.2C47.4,37.7,47.4,37.8,47.4,37.9z"/>
		<path fill="#8D150C" d="M48.2,38.8L48.2,38.8c0,0.1,0,0.3,0.1,0.4C48.5,39,48.5,38.8,48.2,38.8L48.2,38.8
			C48.2,38.8,48.2,38.8,48.2,38.8c-0.1-0.2-0.2-0.2-0.4-0.2h0c0,0,0,0,0,0C48,38.7,48.1,38.7,48.2,38.8z"/>
		<path fill="#8D150C" d="M19.1,21.7c0.9-0.2,1.6-0.5,1.6-1.6c-0.4-0.7-1-1-1.8-1.2c-1.4-0.3-2.7-0.1-3.8,0.8
			c-0.3,0.9-0.1,1.4,0.8,1.8c0.3,0.1,0.7,0.3,1,0.3c0.7,0,0.9,0.4,0.9,1.1c-0.1,0.6,0,1.2,0.3,1.7c-0.1-0.6,0.3-1.1,0.2-1.7
			C18.2,22.1,18.5,21.8,19.1,21.7z"/>
		<path fill="#8D150C" d="M26.1,19.2c0.4,0.7,1.1,1,1.9,0.7c0.8-0.2,1.3-0.7,1.2-1.6c-0.1-0.8-0.4-1.5-1.1-2.1
			c-0.6-0.5-1.2-0.5-1.8-0.2c-0.6,0.3-0.6,0.8-0.6,1.5C25.7,18,25.8,18.6,26.1,19.2z"/>
		<path fill="#8D150C" d="M9.8,15.9c-0.7-0.2-1.7,0.4-2.2,1.4c-0.4,0.9-0.3,1.6,0.4,2.2c0.6,0.4,1.2,0.6,1.8,0.3
			c0.9-0.4,0.9-1.3,1-2C10.8,16.9,10.6,16.2,9.8,15.9z"/>
		<path fill="#8D150C" d="M35,3.2c-1.9,1.2-3.3,2.9-4.6,4.6c-0.2,0.3-0.3,0.7,0.2,0.9C31.2,9,31.3,9.5,31,10c-0.3,0.6,0,0.7,0.5,0.7
			c0.3-0.4,0.4-0.8,0.5-1.3c0.4-1.3,0.4-1.3-1-1.5c1.3-1.3,2.5-2.6,3.7-4C34.9,3.8,35.4,3.7,35,3.2z"/>
		<path id="smile" fill="#911410" d="M23,22.4c-0.2,0.1-0.4,0.2-0.4,0.5c-0.1,1-0.8,1.3-1.6,1.6c-0.9,0.4-1.8,0.2-2.7,0.3
			c0,0.1,0,0.2,0,0.2c0-0.1,0-0.2,0-0.2c-0.5,0-0.9,0-1.4,0c-0.3-0.1-0.6-0.1-0.9-0.2c-1.2-0.4-2.8-0.5-2.6-2.4
			c0-0.1-0.1-0.2-0.2-0.2c-0.1,0-0.2,0.1-0.2,0.2c-0.2,0.7,0.1,1.2,0.5,1.7c0.7,0.7,1.6,0.9,2.4,1.3c-0.2,0.8-0.6,1.6-0.2,2.5
			c0.5,1,2.4,1.6,3.7,1.1c1.2-0.4,1.6-1.3,1.2-2.8c-0.1-0.6-0.1-0.7,0.5-0.9C22.6,24.5,23.2,23.5,23,22.4z M19,28.4
			c-1.1,0.4-2.6-0.1-3-1.1c-0.3-0.7,0.1-1.3,0.4-1.9c0.6,0,1.2,0.2,1.9,0.1l0,0c0.4,0.1,0.9,0.1,1.3-0.1c0-0.1,0.1-0.1,0.1-0.2
			c-0.1,0-0.1,0.1-0.1,0.2c0.1,0.1,0.2,0.1,0.4,0.2c0,0.2,0.1,0.4,0.1,0.5C20.3,27.4,20.1,28,19,28.4z"/>
		<path fill="#8D150C" d="M7.3,9.9C7.2,9.1,6.9,8.3,6.6,7.5C5.7,5.8,4.6,4.3,3.4,2.8C3.2,2.7,3.1,2.5,2.9,2.4c-0.1,0-0.1,0-0.2,0
			c-0.3,0.5,0.2,0.7,0.4,1C4.4,5.1,5.6,7,6.5,9.1C6.1,9,5.8,8.9,5.5,8.8C5.1,8.7,4.9,8.8,4.9,9.3C5,9.9,5,10.5,5.4,11
			c0.1,0,0.3,0.1,0.3,0C5.4,9.4,6.3,9.8,7.3,9.9z"/>
		<path fill="#8D150C" d="M13.6,35.8c0.2,0,0.3,0.1,0.2,0.3c-0.2,0.4-0.5,0.9-1,1c-0.2,0.1-0.3-0.1-0.2-0.3
			C12.7,36.3,13.1,36,13.6,35.8z"/>
		<path fill="#8D150C" d="M12.8,38.8c0.2-0.3,0.1-0.8,0.7-1c0.3-0.1,0.3,0.2,0.2,0.4c-0.2,0.4,0,1.1-0.6,1.2
			C12.8,39.4,12.8,39.1,12.8,38.8z"/>
	</g>
	<path id="Tongue" fill="#F8A777" d="M16.4,25.3c0.6,0,1.2,0.2,1.9,0.1c0.4,0.1,0.9,0.1,1.3-0.1c0.1,0.1,0.2,0.1,0.4,0.2
		c0,0.2,0.1,0.4,0.1,0.5c0.3,1.4,0.1,2-1,2.3c-1.1,0.4-2.6-0.1-3-1.1C15.7,26.5,16.1,26,16.4,25.3z"/>
</g>
</svg>
